<?xml version="1.0" encoding="UTF-8"?>
<svg id="Capa_1" data-name="Capa 1" xmlns="http://www.w3.org/2000/svg" version="1.1" viewBox="0 0 322 322">
  <defs>
    <style>
      .cls-1 {
        fill: #141327;
      }

      .cls-1, .cls-2 {
        stroke: #fff;
        stroke-miterlimit: 10;
        stroke-width: 5px;
      }

      .cls-2 {
        fill: none;
      }

      .cls-3 {
        fill: #fff;
      }

      .cls-3, .cls-4 {
        stroke-width: 0px;
      }

      .cls-4 {
        fill: #f8d52e;
      }
    </style>
  </defs>
  <circle class="cls-1" cx="161" cy="161" r="159"/>
  <circle class="cls-2" cx="161" cy="161" r="135.8"/>
  <path class="cls-3" d="M246.6,89h0c-.8.9-.8,2.3,0,3.2,16,19.8,25.2,45.3,24.2,72.9-2.1,57.1-48.3,103.4-105.4,105.6-62.5,2.4-114.1-47.7-114.1-109.7s47.1-107.6,105.8-109.7,2.4-1.1,2.4-2.4,0,0,0,0c0-1.4-1.1-2.6-2.5-2.6-62.1,2.2-111.8,54-110.6,116.9,1.1,61.6,51.5,111.7,113.1,112.7s116.5-50.9,116.5-114.8-9.5-52.2-25.4-71.9-2.8-1.3-3.8-.1Z"/>
  <path class="cls-4" d="M83.9,142.8h153c1.2,0,2.2,1,2.2,2.2v72.9c0,8.2-6.7,14.9-14.9,14.9h-127.4c-8.2,0-14.9-6.7-14.9-14.9v-72.9c0-1.2,1-2.2,2.2-2.2Z"/>
  <path class="cls-4" d="M198.5,139.5h-18.1c-.9,0-1.5-1.1-.9-1.8l13.8-19.4c.2-.3.6-.5.9-.5h17.9c.9,0,1.5,1.1,1,1.8l-13.6,19.4c-.2.3-.6.5-1,.5Z"/>
  <path class="cls-4" d="M236.9,138.9h-20.7c-.8,0-1.3-.9-.8-1.6l13.4-18.8c.6-.8,1.6-1.3,2.6-1.3h5.5c.9,0,1.6.7,1.6,1.6v18.4c0,.9-.7,1.6-1.6,1.6Z"/>
  <path class="cls-4" d="M226,71.6c-5.1.9-10.3,1.8-15.4,2.7-.8.1-1.1,1.1-.6,1.7l16.2,15.8c.7.7,1.8,1,2.8.9l5.5-.9c.9-.1,1.5-1,1.4-1.8-.7-4.4-1.3-8.8-2-13.1s-.9-2.7-1.9-3.6,0,0,0,0c-2.3-2-5.2-1.7-5.8-1.6Z"/>
  <path class="cls-4" d="M162.7,139.5h-18.1c-.9,0-1.5-1.1-.9-1.8l13.8-19.4c.2-.3.6-.5.9-.5h17.9c.9,0,1.5,1.1,1,1.8l-13.6,19.4c-.2.3-.6.5-1,.5Z"/>
  <path class="cls-4" d="M127.6,139.5h-18.1c-.9,0-1.5-1.1-.9-1.8l13.8-19.4c.2-.3.6-.5.9-.5h17.9c.9,0,1.5,1.1,1,1.8l-13.6,19.4c-.2.3-.6.5-1,.5Z"/>
  <path class="cls-4" d="M125.2,92.2l-19,2.2c-1,.1-1.5,1.2-.8,1.8l16.5,16.1c.3.3.6.4,1,.3l18.7-2.2c1-.1,1.4-1.2.8-1.8l-16.3-16.1c-.3-.3-.7-.4-1-.3Z"/>
  <path class="cls-4" d="M159.5,85.4l-19,2.2c-1,.1-1.5,1.2-.8,1.8l16.5,16.1c.3.3.6.4,1,.3l18.7-2.2c1-.1,1.4-1.2.8-1.8l-16.3-16.1c-.3-.3-.7-.4-1-.3Z"/>
  <path class="cls-4" d="M194.3,78.9l-19,2.2c-1,.1-1.5,1.2-.8,1.8l16.5,16.1c.3.3.6.4,1,.3l18.7-2.2c1-.1,1.4-1.2.8-1.8l-16.3-16.1c-.3-.3-.7-.4-1-.3Z"/>
  <path class="cls-4" d="M79.3,101.7l2.8,35c0,1.1,1,1.9,2,1.9h7.1c1.1,0,2.2-.5,2.8-1.4l13.3-18.1c.9-1.3.8-3-.3-4.1l-15.4-15.4c-.9-.9-2.1-1.3-3.4-1l-7.8,1.7c-.7.2-1.2.8-1.2,1.6Z"/>
</svg>